<svg xmlns="http://www.w3.org/2000/svg" viewBox="0 0 64 64"><defs><style>.cls-1{fill:#666a73;}</style></defs><title> Calendly_Integration_Icon_Bit</title><g id="Calendly"><path class="cls-1" d="M53,7.64H45.12V6.57a1.55,1.55,0,1,0-3.09,0V7.64H21.55v-1a1.55,1.55,0,0,0-3.1,0v1H10.59a5,5,0,0,0-5,5V52.75a5,5,0,0,0,5,5H53a5,5,0,0,0,5-5V12.64A5,5,0,0,0,53,7.64Zm1.82,45.18a2,2,0,0,1-2,2H10.66a2,2,0,0,1-2-2V12.6a2,2,0,0,1,2-2h7.79v3.67a1.55,1.55,0,0,0,3.1,0V10.6H42v3.63a1.55,1.55,0,0,0,3.09,0V10.6h7.73a2,2,0,0,1,2,2Z"/><path class="cls-1" d="M39.79,40.1a.55.55,0,0,0,.16-.39.58.58,0,0,0-.57-.57.57.57,0,0,0-.4.17,8.62,8.62,0,0,1-5.5,1.94,8.11,8.11,0,0,1-8.36-7.82,8.11,8.11,0,0,1,8.36-7.83,8.69,8.69,0,0,1,5.44,1.89.56.56,0,0,0,.4.17.57.57,0,0,0,.57-.57.6.6,0,0,0-.16-.39h0l0,0a9.89,9.89,0,0,0-6.21-2.16c-5.26,0-9.52,4-9.52,8.92s4.26,8.92,9.52,8.92a9.8,9.8,0,0,0,6.26-2.22l0,0Z"/></g></svg>