<?xml version="1.0" encoding="utf-8"?>
<!-- Svg Vector Icons : http://www.onlinewebfonts.com/icon -->
<!DOCTYPE svg PUBLIC "-//W3C//DTD SVG 1.1//EN" "http://www.w3.org/Graphics/SVG/1.1/DTD/svg11.dtd">
<svg version="1.1" xmlns="http://www.w3.org/2000/svg" xmlns:xlink="http://www.w3.org/1999/xlink" x="0px" y="0px" viewBox="0 0 1000 1000" enable-background="new 0 0 1000 1000" xml:space="preserve">
<metadata> Svg Vector Icons : http://www.onlinewebfonts.com/icon </metadata>
<g><g transform="translate(0.000000,511.000000) scale(0.100000,-0.100000)"><path d="M4944.4,2899.1c-25-4.2-75.2-41.8-110.7-81.5l-64.7-75.2l6.3-751.9l6.3-751.9l68.9-60.6c94-83.5,206.8-83.5,300.8,0l68.9,60.6v764.5v764.5l-62.7,60.6C5092.7,2890.8,5023.8,2913.8,4944.4,2899.1z"/><path d="M1516.8,1503.9c-75.2-62.7-98.2-146.2-66.8-231.8c31.3-81.5,931.6-985.9,1019.3-1025.6c142.1-60.6,296.6,48,296.6,211c0,83.5-10.4,94-507.5,591.1c-499.2,499.2-507.5,507.5-593.2,507.5C1602.5,1556.1,1560.7,1541.5,1516.8,1503.9z"/><path d="M7743.2,1048.6C7244,549.4,7235.7,541,7235.7,455.4c0-165,150.4-271.5,294.5-208.9c89.8,39.7,990,944.1,1021.4,1025.6c50.1,135.8-62.7,284.1-217.2,284.1C8250.8,1556.1,8240.3,1545.7,7743.2,1048.6z"/><path d="M4697.9,655.9C3227.5,503.4,2070.3-637,1899.1-2103.3l-12.5-121.1h-584.8c-390.6,0-601.5-8.4-630.8-23c-79.4-39.7-119.1-106.5-119.1-202.6c0-71,12.5-102.4,58.5-148.3l56.4-58.5l1054.8-12.5c1359.7-18.8,5198.8-18.8,6558.5,0l1054.8,12.5l56.4,58.5c64.7,62.7,77.3,162.9,33.4,259c-48,108.6-89.8,114.9-724.8,114.9H8115l-12.5,121.1c-123.2,1059-760.3,1965.4-1719,2447.9c-350.9,175.4-683,269.4-1109.1,311.2C5034.2,681,4940.2,681,4697.9,655.9z M5389.3,196.4c670.5-91.9,1345.1-497.1,1758.7-1052.7c133.7-179.6,317.5-532.6,386.4-741.5c48-148.3,106.5-403.1,125.3-557.7l8.4-68.9H5000.8H2333.5l8.4,68.9c133.7,1092.4,887.7,1980.1,1938.3,2280.9c104.4,29.2,244.4,60.6,313.3,71C4775.2,221.5,5201.3,223.5,5389.3,196.4z"/><path d="M217.7-914.8c-71-35.5-131.6-165-114.9-244.4c27.1-119.1,98.2-152.5,603.6-279.9c259-64.7,490.8-117,513.8-117c173.4,0,275.7,233.9,162.9,365.5c-41.8,46-117,73.1-538.9,177.5C574.9-944,334.7-887.6,311.7-887.6C288.7-887.6,246.9-900.2,217.7-914.8z"/><path d="M9146.8-1013c-411.5-104.4-486.7-131.6-526.4-177.5c-114.9-133.7-12.5-365.5,160.8-365.5c75.2,0,969.2,229.8,1017.2,263.2c27.1,16.7,62.7,58.5,81.5,96.1c68.9,131.6-50.1,313.3-200.5,307C9650.2-889.7,9412.1-946.1,9146.8-1013z"/></g></g>
</svg>